<svg id="bgs" xmlns="http://www.w3.org/2000/svg" viewBox="0 0 204.6 102.36"><path fill="#99489b" d="M0 0h204.6v102.36H0z"/><path fill="none" d="M0 0h204.6v102.36H0z"/><path fill="none" d="M0 0h204.6v102.36H0z"/><g opacity=".3" fill="#fff"><path d="M102.3 90a38.84 38.84 0 1 1 27.46-11.38A38.58 38.58 0 0 1 102.3 90zm29.81-68.65A42.15 42.15 0 0 0 72.49 81a42.15 42.15 0 0 0 59.62-59.62z"/><path d="M84.12 50.75a7 7 0 1 0 7 7 7 7 0 0 0-7-7z"/><path d="M120.48 50.75a7 7 0 1 0 7 7 7 7 0 0 0-7-7z"/><path d="M102.3 81c6.94 0 12.58-4.48 12.75-10.06h-25.5C89.72 76.5 95.36 81 102.3 81z"/></g><path d="M83 43.13v2.39h-6.3v3H83v2.39h-6.3v3H83v2.41h-8.83V43.13H83z" fill="#fff"/><path d="M87.48 46.55v1.15a3.22 3.22 0 0 1 1.13-1 3.31 3.31 0 0 1 1.57-.36 3.65 3.65 0 0 1 1.84.42A2.82 2.82 0 0 1 93.15 48a3.42 3.42 0 0 1 1.25-1.2 3.59 3.59 0 0 1 1.79-.44A3.51 3.51 0 0 1 99 47.41a4.22 4.22 0 0 1 .93 2.89v6h-2.59v-5.64a2.55 2.55 0 0 0-.42-1.56 1.61 1.61 0 0 0-1.38-.57 1.72 1.72 0 0 0-1.35.57 2.53 2.53 0 0 0-.5 1.72v5.46h-2.54v-5.69a2.44 2.44 0 0 0-.41-1.51 1.57 1.57 0 0 0-1.33-.54 1.77 1.77 0 0 0-1.4.58 2.59 2.59 0 0 0-.51 1.76v5.4H85v-9.73h2.48z" fill="#fff"/><path d="M104.59 56.08A5.07 5.07 0 0 1 103 55a5 5 0 0 1-1.47-3.57 5.07 5.07 0 0 1 .39-2 4.88 4.88 0 0 1 1.08-1.6 5.26 5.26 0 0 1 7.33 0 5 5 0 0 1 1.49 3.58 4.9 4.9 0 0 1-.4 2A5.21 5.21 0 0 1 110.3 55a4.94 4.94 0 0 1-1.63 1.09 5.22 5.22 0 0 1-2 .4 5.16 5.16 0 0 1-2.08-.41zm3.1-2.18a2.8 2.8 0 0 0 .85-.58 2.63 2.63 0 0 0 .57-.86 2.85 2.85 0 0 0 0-2.13 2.61 2.61 0 0 0-.57-.86 2.76 2.76 0 0 0-.85-.58 2.63 2.63 0 0 0-2.09 0 2.76 2.76 0 0 0-.85.58 2.61 2.61 0 0 0-.57.86 2.85 2.85 0 0 0 0 2.13 2.63 2.63 0 0 0 .57.86 2.8 2.8 0 0 0 .85.58 2.63 2.63 0 0 0 2.09 0z" fill="#fff"/><path d="M112.53 57.78a1 1 0 0 0 .58-.26 1 1 0 0 0 .25-.57 7 7 0 0 0 .05-1v-9.4H116V56a8.25 8.25 0 0 1-.2 2 2.72 2.72 0 0 1-.68 1.28 2.69 2.69 0 0 1-1.26.69 7.8 7.8 0 0 1-2 .21h-.34v-2.34a6.41 6.41 0 0 0 1.01-.06zm1-15.12a1.66 1.66 0 0 1 2.3 0 1.61 1.61 0 0 1 .44 1.16 1.53 1.53 0 0 1-1.6 1.58 1.53 1.53 0 0 1-1.14-.45 1.55 1.55 0 0 1-.44-1.13 1.59 1.59 0 0 1 .45-1.16z" fill="#fff"/><path d="M118 42.66a1.66 1.66 0 0 1 2.3 0 1.61 1.61 0 0 1 .44 1.16 1.53 1.53 0 0 1-1.6 1.58A1.53 1.53 0 0 1 118 45a1.55 1.55 0 0 1-.44-1.13 1.59 1.59 0 0 1 .44-1.21zm2.41 3.9v9.72h-2.51v-9.73h2.54z" fill="#fff"/><path d="M123.39 55.85a4.06 4.06 0 0 1-1.68-1.79l2.39-.94a2.29 2.29 0 0 0 2.23 1.31 1.82 1.82 0 0 0 1.15-.32.93.93 0 0 0 .4-.75.58.58 0 0 0-.18-.44 1.44 1.44 0 0 0-.5-.29 5.47 5.47 0 0 0-.73-.21l-.88-.18q-.59-.1-1.22-.24a4.13 4.13 0 0 1-1.12-.5 2.61 2.61 0 0 1-.8-.82 2.38 2.38 0 0 1-.31-1.27 2.52 2.52 0 0 1 .29-1.17 3 3 0 0 1 .81-1 4.05 4.05 0 0 1 1.25-.66 5.86 5.86 0 0 1 4.15.31 5.06 5.06 0 0 1 1.66 1.52l-2.27.92a2.24 2.24 0 0 0-.77-.76 2.22 2.22 0 0 0-1.14-.27 1.83 1.83 0 0 0-1.09.26.81.81 0 0 0-.35.68.69.69 0 0 0 .58.66q.58.19 1.64.42.61.13 1.23.31a4.25 4.25 0 0 1 1.13.51 2.7 2.7 0 0 1 .84.86 2.42 2.42 0 0 1 .32 1.3 2.79 2.79 0 0 1-.25 1.14 3 3 0 0 1-.77 1 4.11 4.11 0 0 1-1.31.75 5.34 5.34 0 0 1-1.85.29 5.79 5.79 0 0 1-2.85-.63z" fill="#fff"/></svg>